<svg width="26" height="26" viewBox="0 0 26 26" fill="none" xmlns="http://www.w3.org/2000/svg">
<path d="M12.8582 23.4C12.937 23.4 13.0157 23.3783 13.0945 23.335C13.1733 23.2917 13.2323 23.2483 13.2717 23.205L22.9582 12.545C23.1945 12.285 23.3667 11.9925 23.475 11.6675C23.5833 11.3425 23.6374 11.0175 23.6374 10.6925C23.6374 10.3458 23.5833 10.0154 23.475 9.70125C23.3667 9.38708 23.1945 9.11083 22.9582 8.8725L17.9378 3.3475C17.7212 3.0875 17.4702 2.89792 17.1847 2.77875C16.8992 2.65958 16.599 2.6 16.284 2.6C15.9886 2.6 15.6933 2.65958 15.398 2.77875C15.1027 2.89792 14.8369 3.0875 14.6006 3.3475L14.2758 3.705L16.4612 6.1425C16.7565 6.44583 16.973 6.7925 17.1109 7.1825C17.2487 7.5725 17.3176 7.98417 17.3176 8.4175C17.3176 9.3275 17.037 10.0912 16.4759 10.7087C15.9148 11.3262 15.2208 11.635 14.3939 11.635C14.0002 11.635 13.6212 11.5592 13.2569 11.4075C12.8927 11.2558 12.5728 11.0283 12.2971 10.725L10.0822 8.32L4.91413 14.0075C4.85507 14.0725 4.81077 14.1429 4.78124 14.2187C4.7517 14.2946 4.73694 14.3758 4.73694 14.4625C4.73694 14.6358 4.796 14.7929 4.91413 14.9337C5.03226 15.0746 5.17007 15.145 5.32758 15.145C5.40633 15.145 5.48508 15.1233 5.56383 15.08C5.64259 15.0367 5.70165 14.9933 5.74103 14.95L9.75738 10.53L11.4112 12.35L7.42435 16.77C7.36529 16.835 7.32099 16.9054 7.29146 16.9812C7.26193 17.0571 7.24716 17.1383 7.24716 17.225C7.24716 17.3983 7.30622 17.55 7.42435 17.68C7.54248 17.81 7.6803 17.875 7.8378 17.875C7.91655 17.875 7.9953 17.8533 8.07406 17.81C8.15281 17.7667 8.21187 17.7233 8.25125 17.68L12.2676 13.2925L13.9214 15.1125L9.93457 19.5325C9.87551 19.5758 9.83121 19.6408 9.80168 19.7275C9.77215 19.8142 9.75738 19.9008 9.75738 19.9875C9.75738 20.1608 9.81645 20.3125 9.93457 20.4425C10.0527 20.5725 10.1905 20.6375 10.348 20.6375C10.4268 20.6375 10.5006 20.6212 10.5695 20.5887C10.6384 20.5562 10.7024 20.5075 10.7615 20.4425L14.7778 16.055L16.4316 17.875L12.4153 22.295C12.3562 22.36 12.3119 22.4304 12.2824 22.5062C12.2528 22.5821 12.2381 22.6633 12.2381 22.75C12.2381 22.9233 12.3021 23.075 12.43 23.205C12.558 23.335 12.7007 23.4 12.8582 23.4ZM12.8287 26C12.1003 26 11.4555 25.7346 10.8944 25.2037C10.3333 24.6729 10.0035 24.0067 9.90504 23.205C9.23565 23.0967 8.67454 22.7933 8.22172 22.295C7.76889 21.7967 7.49326 21.1792 7.39482 20.4425C6.72543 20.3342 6.16924 20.0254 5.72626 19.5162C5.28328 19.0071 5.01257 18.395 4.91413 17.68C4.16598 17.5717 3.55566 17.2142 3.08314 16.6075C2.61063 16.0008 2.37438 15.2858 2.37438 14.4625C2.37438 14.0292 2.44821 13.6121 2.59587 13.2112C2.74353 12.8104 2.95517 12.4583 3.2308 12.155L10.0822 4.6475L13.9509 8.905C13.9903 8.97 14.0494 9.01875 14.1281 9.05125C14.2069 9.08375 14.2856 9.1 14.3644 9.1C14.5416 9.1 14.6892 9.04042 14.8074 8.92125C14.9255 8.80208 14.9846 8.645 14.9846 8.45C14.9846 8.36333 14.9698 8.27667 14.9403 8.19C14.9107 8.10333 14.8664 8.03833 14.8074 7.995L10.5843 3.3475C10.3677 3.0875 10.1167 2.89792 9.83121 2.77875C9.54574 2.65958 9.24549 2.6 8.93049 2.6C8.63517 2.6 8.33985 2.65958 8.04452 2.77875C7.7492 2.89792 7.48342 3.0875 7.24716 3.3475L3.08314 7.9625C2.90595 8.1575 2.75829 8.385 2.64016 8.645C2.52204 8.905 2.44328 9.165 2.40391 9.425C2.36453 9.685 2.36453 9.95042 2.40391 10.2212C2.44328 10.4921 2.52204 10.7467 2.64016 10.985L0.927306 12.87C0.592609 12.3717 0.346509 11.8246 0.189005 11.2287C0.0315008 10.6329 -0.0275632 10.0317 0.0118128 9.425C0.0511889 8.81833 0.189005 8.22792 0.425261 7.65375C0.661517 7.07958 0.98637 6.565 1.39982 6.11L5.56383 1.5275C6.03635 1.02917 6.563 0.65 7.1438 0.39C7.72459 0.13 8.32016 0 8.93049 0C9.54081 0 10.1364 0.13 10.7172 0.39C11.298 0.65 11.8148 1.02917 12.2676 1.5275L12.5925 1.885L12.9173 1.5275C13.3898 1.02917 13.9165 0.65 14.4973 0.39C15.0781 0.13 15.6736 0 16.284 0C16.8943 0 17.4899 0.13 18.0707 0.39C18.6514 0.65 19.1683 1.02917 19.6211 1.5275L24.612 7.02C25.0648 7.51833 25.4094 8.0925 25.6456 8.7425C25.8819 9.3925 26 10.0533 26 10.725C26 11.3967 25.8819 12.0521 25.6456 12.6912C25.4094 13.3304 25.0648 13.8992 24.612 14.3975L14.9255 25.025C14.6499 25.3283 14.3299 25.5667 13.9657 25.74C13.6015 25.9133 13.2225 26 12.8287 26Z" fill="#808080"/>
</svg>
