<svg width="32" height="32" viewBox="0 0 32 32" fill="none" xmlns="http://www.w3.org/2000/svg">
<path fill-rule="evenodd" clip-rule="evenodd" d="M2.66675 16.3923C2.66675 14.1449 4.38414 12.2987 6.57774 12.0955C8.10982 8.39964 11.7515 5.80005 16.0001 5.80005C20.2487 5.80005 23.8903 8.39964 25.4224 12.0955C27.616 12.2987 29.3334 14.1449 29.3334 16.3923C29.3334 18.5731 27.7164 20.376 25.6164 20.6668C24.4858 24.3832 21.5929 26.2 16.0001 26.2C10.4072 26.2 7.5143 24.3831 6.38373 20.6667C4.28331 20.3756 2.66675 18.5728 2.66675 16.3923ZM4.50008 16.1648C4.50008 16.9895 5.01499 17.694 5.74073 17.974C5.64831 17.3525 5.60728 16.667 5.60728 15.8879C5.60728 15.3635 5.66342 14.8464 5.77341 14.3433C5.03047 14.6146 4.50008 15.3277 4.50008 16.1648ZM26.2267 14.3433C26.3367 14.8464 26.3929 15.3635 26.3929 15.8879C26.3929 16.667 26.3519 17.3525 26.2594 17.974C26.9852 17.694 27.5001 16.9896 27.5001 16.1648C27.5001 15.3277 26.9697 14.6146 26.2267 14.3433ZM15.6886 7.70745C11.2526 7.87133 7.70675 11.5205 7.70675 15.9982C7.70675 18.7615 8.11944 20.6208 9.15111 21.9314C10.3683 23.4777 12.532 24.2947 16.0001 24.2947C19.4682 24.2947 21.6319 23.4777 22.8491 21.9314C23.8807 20.6208 24.2934 18.7615 24.2934 15.9982C24.2934 12.0406 21.5235 8.73029 17.8173 7.90148C18.61 9.0004 19.0159 10.0627 19.0159 11.0957C19.0159 13.2003 17.8543 14.1126 16.0001 14.1126C14.48 14.1126 13.3613 12.8989 13.3613 11.4728C13.3613 10.5602 13.7733 9.85712 14.5563 9.49976C14.9351 9.32686 15.3823 9.4939 15.5551 9.87289C15.728 10.2519 15.561 10.6993 15.1821 10.8721C14.9599 10.9736 14.8692 11.1284 14.8692 11.4728C14.8692 12.0919 15.3414 12.6042 16.0001 12.6042C17.0906 12.6042 17.508 12.2763 17.508 11.0957C17.508 10.13 16.9177 8.99424 15.6886 7.70745ZM17.3865 20.9178C17.6928 20.6114 18.1895 20.6114 18.4957 20.9178C18.802 21.2242 18.802 21.721 18.4957 22.0274C17.1174 23.4063 14.8827 23.4063 13.5044 22.0274C13.1981 21.721 13.1981 21.2242 13.5044 20.9178C13.8107 20.6114 14.3073 20.6114 14.6135 20.9178C15.3794 21.6838 16.6208 21.6838 17.3865 20.9178ZM19.0197 18.4009C18.3569 18.4009 17.8197 17.8634 17.8197 17.2005C17.8197 16.5375 18.3569 16 19.0197 16C19.6824 16 20.2197 16.5375 20.2197 17.2005C20.2197 17.8634 19.6824 18.4009 19.0197 18.4009ZM12.353 18.4009C11.6903 18.4009 11.153 17.8634 11.153 17.2005C11.153 16.5375 11.6903 16 12.353 16C13.0157 16 13.553 16.5375 13.553 17.2005C13.553 17.8634 13.0157 18.4009 12.353 18.4009Z" fill="#333333"/>
</svg>
