<?xml version="1.0" standalone="no"?>
<!DOCTYPE svg PUBLIC "-//W3C//DTD SVG 20010904//EN"
 "http://www.w3.org/TR/2001/REC-SVG-20010904/DTD/svg10.dtd">
<svg version="1.0" xmlns="http://www.w3.org/2000/svg"
 width="41.000000pt" height="41.000000pt" viewBox="0 0 41.000000 41.000000"
 preserveAspectRatio="xMidYMid meet">

<g transform="translate(0.000000,41.000000) scale(0.100000,-0.100000)"
fill="#000000" stroke="none">
<path d="M120 378 c-26 -14 -57 -41 -75 -66 -43 -63 -43 -151 0 -214 36 -51
102 -88 160 -88 53 0 121 35 159 83 23 29 31 50 34 95 11 154 -142 258 -278
190z m138 -84 c23 -16 30 -58 12 -69 -7 -4 -5 -14 5 -28 21 -30 19 -44 -10
-72 -20 -21 -34 -25 -80 -25 l-55 0 0 105 0 105 53 0 c31 0 61 -6 75 -16z"/>
<path d="M180 245 c0 -11 7 -15 23 -13 12 2 22 8 22 13 0 6 -10 11 -22 13 -16
2 -23 -2 -23 -13z"/>
<path d="M180 171 c0 -16 6 -21 26 -21 33 0 30 33 -4 38 -17 3 -22 -2 -22 -17z"/>
</g>
</svg>
