<svg width="32" height="32" viewBox="0 0 32 32" fill="none" xmlns="http://www.w3.org/2000/svg">
<path fill-rule="evenodd" clip-rule="evenodd" d="M20.0005 16.6677C26.7367 16.6677 30.0276 20.0054 29.211 26.1767C29.1232 26.8397 28.5579 27.3352 27.8891 27.3352H12.1119C11.443 27.3352 10.8777 26.8397 10.7899 26.1767C9.97329 20.0054 13.2642 16.6677 20.0005 16.6677ZM20.0005 19.3346C15.2764 19.3346 13.221 20.986 13.3357 24.6683H26.6652C26.7799 20.986 24.7245 19.3346 20.0005 19.3346ZM9.33297 15.3342C9.84987 15.3342 10.3377 15.3616 10.7969 15.4168C11.528 15.5048 12.0494 16.1689 11.9614 16.9001C11.8734 17.6312 11.2093 18.1526 10.4781 18.0646C10.1285 18.0225 9.74664 18.0011 9.33297 18.0011C6.62873 18.0011 5.42901 18.7892 5.33604 20.668H7.99953C8.73596 20.668 9.33297 21.265 9.33297 22.0014C9.33297 22.7379 8.73596 23.3349 7.99953 23.3349H4.0739C3.40507 23.3349 2.83972 22.8394 2.75198 22.1764C2.1706 17.783 4.58503 15.3342 9.33297 15.3342ZM20.0005 4.66675C22.9462 4.66675 25.3342 7.05475 25.3342 10.0005C25.3342 12.9462 22.9462 15.3342 20.0005 15.3342C17.0547 15.3342 14.6667 12.9462 14.6667 10.0005C14.6667 7.05475 17.0547 4.66675 20.0005 4.66675ZM9.33296 6.00019C11.5423 6.00019 13.3333 7.79119 13.3333 10.0005C13.3333 12.2098 11.5423 14.0008 9.33296 14.0008C7.12365 14.0008 5.33265 12.2098 5.33265 10.0005C5.33265 7.79119 7.12365 6.00019 9.33296 6.00019ZM20.0005 7.33362C18.5276 7.33362 17.3336 8.52762 17.3336 10.0005C17.3336 11.4734 18.5276 12.6674 20.0005 12.6674C21.4733 12.6674 22.6673 11.4734 22.6673 10.0005C22.6673 8.52762 21.4733 7.33362 20.0005 7.33362ZM9.33296 8.66706C8.59653 8.66706 7.99953 9.26406 7.99953 10.0005C7.99953 10.7369 8.59653 11.3339 9.33296 11.3339C10.0694 11.3339 10.6664 10.7369 10.6664 10.0005C10.6664 9.26406 10.0694 8.66706 9.33296 8.66706Z" fill="#333333"/>
</svg>
