<svg width="32" height="32" viewBox="0 0 32 32" fill="none" xmlns="http://www.w3.org/2000/svg">
<path fill-rule="evenodd" clip-rule="evenodd" d="M11.1602 3.33226C11.6791 3.02955 12.3208 3.02955 12.8398 3.33226L20.5039 7.80298C21.3855 8.3173 21.0207 9.66676 20 9.66676L18.9996 9.66656L19.0002 17.7186C20.6952 17.9841 22.0974 19.2467 22.5091 20.9565L23.0463 23.188C23.5375 25.2286 25.363 26.6668 27.4619 26.6668H28C28.7364 26.6668 29.3333 27.2637 29.3333 28.0001C29.3333 28.7365 28.7364 29.3334 28 29.3334H27.4619C24.1307 29.3334 21.2334 27.0508 20.4537 23.8122L19.9165 21.5807C19.7496 20.8876 19.1534 20.3883 18.4513 20.3377L18.3333 20.3334L17.333 20.3332L17.3333 27.0001C17.3333 27.5524 16.8856 28.0001 16.3333 28.0001C15.781 28.0001 15.3333 27.5524 15.3333 27.0001L15.333 20.3332H8.66629L8.66665 27.0001C8.66665 27.5524 8.21894 28.0001 7.66666 28.0001C7.11437 28.0001 6.66666 27.5524 6.66666 27.0001V20.3334C5.74618 20.3334 4.99999 19.5872 4.99999 18.6668L4.99962 9.66656L3.99999 9.66676C3.01115 9.66676 2.63787 8.40032 3.41709 7.85357L3.49612 7.80298L11.1602 3.33226ZM17 9.66676H6.99999V18.3334H17V9.66676ZM12 10.3334C14.025 10.3334 15.6667 11.975 15.6667 14.0001C15.6667 16.0251 14.025 17.6668 12 17.6668C9.97494 17.6668 8.33332 16.0251 8.33332 14.0001C8.33332 11.975 9.97494 10.3334 12 10.3334ZM12 12.3334C11.0795 12.3334 10.3333 13.0796 10.3333 14.0001C10.3333 14.9206 11.0795 15.6668 12 15.6668C12.9205 15.6668 13.6667 14.9206 13.6667 14.0001C13.6667 13.0796 12.9205 12.3334 12 12.3334ZM12 5.15742L7.69732 7.66676H16.302L12 5.15742Z" fill="#333333"/>
</svg>
