<svg width="22" height="24" viewBox="0 0 22 24" fill="none" xmlns="http://www.w3.org/2000/svg">
<path d="M18.3333 24C17.3148 24 16.4491 23.65 15.7361 22.95C15.0231 22.25 14.6667 21.4 14.6667 20.4C14.6667 20.28 14.6972 20 14.7583 19.56L6.17222 14.64C5.8463 14.94 5.46944 15.175 5.04167 15.345C4.61389 15.515 4.15556 15.6 3.66667 15.6C2.64815 15.6 1.78241 15.25 1.06944 14.55C0.356481 13.85 0 13 0 12C0 11 0.356481 10.15 1.06944 9.45C1.78241 8.75 2.64815 8.4 3.66667 8.4C4.15556 8.4 4.61389 8.485 5.04167 8.655C5.46944 8.825 5.8463 9.06 6.17222 9.36L14.7583 4.44C14.7176 4.3 14.6921 4.165 14.6819 4.035C14.6718 3.905 14.6667 3.76 14.6667 3.6C14.6667 2.6 15.0231 1.75 15.7361 1.05C16.4491 0.35 17.3148 0 18.3333 0C19.3519 0 20.2176 0.35 20.9306 1.05C21.6435 1.75 22 2.6 22 3.6C22 4.6 21.6435 5.45 20.9306 6.15C20.2176 6.85 19.3519 7.2 18.3333 7.2C17.8444 7.2 17.3861 7.115 16.9583 6.945C16.5306 6.775 16.1537 6.54 15.8278 6.24L7.24167 11.16C7.28241 11.3 7.30787 11.435 7.31806 11.565C7.32824 11.695 7.33333 11.84 7.33333 12C7.33333 12.16 7.32824 12.305 7.31806 12.435C7.30787 12.565 7.28241 12.7 7.24167 12.84L15.8278 17.76C16.1537 17.46 16.5306 17.225 16.9583 17.055C17.3861 16.885 17.8444 16.8 18.3333 16.8C19.3519 16.8 20.2176 17.15 20.9306 17.85C21.6435 18.55 22 19.4 22 20.4C22 21.4 21.6435 22.25 20.9306 22.95C20.2176 23.65 19.3519 24 18.3333 24ZM18.3333 21.6C18.6796 21.6 18.9699 21.485 19.2042 21.255C19.4384 21.025 19.5556 20.74 19.5556 20.4C19.5556 20.06 19.4384 19.775 19.2042 19.545C18.9699 19.315 18.6796 19.2 18.3333 19.2C17.987 19.2 17.6968 19.315 17.4625 19.545C17.2282 19.775 17.1111 20.06 17.1111 20.4C17.1111 20.74 17.2282 21.025 17.4625 21.255C17.6968 21.485 17.987 21.6 18.3333 21.6ZM3.66667 13.2C4.01296 13.2 4.30324 13.085 4.5375 12.855C4.77176 12.625 4.88889 12.34 4.88889 12C4.88889 11.66 4.77176 11.375 4.5375 11.145C4.30324 10.915 4.01296 10.8 3.66667 10.8C3.32037 10.8 3.03009 10.915 2.79583 11.145C2.56157 11.375 2.44444 11.66 2.44444 12C2.44444 12.34 2.56157 12.625 2.79583 12.855C3.03009 13.085 3.32037 13.2 3.66667 13.2ZM18.3333 4.8C18.6796 4.8 18.9699 4.685 19.2042 4.455C19.4384 4.225 19.5556 3.94 19.5556 3.6C19.5556 3.26 19.4384 2.975 19.2042 2.745C18.9699 2.515 18.6796 2.4 18.3333 2.4C17.987 2.4 17.6968 2.515 17.4625 2.745C17.2282 2.975 17.1111 3.26 17.1111 3.6C17.1111 3.94 17.2282 4.225 17.4625 4.455C17.6968 4.685 17.987 4.8 18.3333 4.8Z" fill="#808080"/>
</svg>
